<svg width="12" height="15" viewBox="0 0 12 15" fill="none" xmlns="http://www.w3.org/2000/svg">
<path d="M5.79327 0.0996094C2.88908 0.0996094 0.534668 2.51611 0.534668 5.4978C0.534668 7.90771 3.97156 12.3013 5.28835 13.8959C5.35011 13.9718 5.42734 14.0328 5.51458 14.0747C5.60183 14.1166 5.69696 14.1383 5.79327 14.1383C5.88958 14.1383 5.98472 14.1166 6.07196 14.0747C6.15921 14.0328 6.23644 13.9718 6.2982 13.8959C7.61498 12.3013 11.0519 7.90844 11.0519 5.4978C11.0519 2.51611 8.69747 0.0996094 5.79327 0.0996094ZM5.79327 7.11879C4.84895 7.11879 4.08408 6.33279 4.08408 5.36399C4.08408 4.39447 4.84966 3.6092 5.79327 3.6092C6.73689 3.6092 7.50246 4.39447 7.50246 5.36399C7.50246 6.33279 6.73689 7.11879 5.79327 7.11879Z" fill="#FF6647"/>
</svg>